<?xml version="1.0" encoding="UTF-8" standalone="no"?>
<svg
   width="1772.5588"
   height="641.36511"
   viewBox="0 0 1772.5588 641.36511"
   fill="none"
   version="1.1"
   id="svg53"
   sodipodi:docname="logo.svg"
   xmlns:inkscape="http://www.inkscape.org/namespaces/inkscape"
   xmlns:sodipodi="http://sodipodi.sourceforge.net/DTD/sodipodi-0.dtd"
   xmlns="http://www.w3.org/2000/svg"
   xmlns:svg="http://www.w3.org/2000/svg">
  <sodipodi:namedview
     id="namedview55"
     pagecolor="#ffffff"
     bordercolor="#666666"
     borderopacity="1.0"
     inkscape:showpageshadow="2"
     inkscape:pageopacity="0.0"
     inkscape:pagecheckerboard="0"
     inkscape:deskcolor="#d1d1d1"
     showgrid="false" />
  <g
     clip-path="url(#clip0_228_1584)"
     id="g46"
     transform="translate(-161.17654,-17.368855)">
    <g
       id="g1584"
       inkscape:export-filename="../src/assets/logo.svg"
       inkscape:export-xdpi="96"
       inkscape:export-ydpi="96">
      <g
         id="g2313"
         transform="translate(-178.82463,-17.709045)"
         inkscape:export-filename="../src/assets/logo.svg"
         inkscape:export-xdpi="96"
         inkscape:export-ydpi="96">
        <path
           d="M 475.328,676.443 V 530.547 l 104.656,-79.304 108.838,82.053 v 142.705"
           fill="#042939"
           id="path6" />
        <path
           d="m 911.4,672.1 c -16.9,0 -29.8,-4.7 -38.7,-14.1 -8.8,-9.4 -13.2,-22.75 -13.2,-40.05 0,-8.6 1.35,-16.25 4.05,-22.95 2.7,-6.8 6.4,-12.5 11.1,-17.1 4.7,-4.7 10.3,-8.25 16.8,-10.65 6.5,-2.4 13.55,-3.6 21.15,-3.6 4.4,0 8.4,0.35 12,1.05 3.6,0.6 6.75,1.35 9.45,2.25 2.7,0.8 4.95,1.65 6.75,2.55 1.8,0.9 3.1,1.6 3.9,2.1 l -6.75,18.9 c -3.2,-1.7 -6.95,-3.15 -11.25,-4.35 -4.2,-1.2 -9,-1.8 -14.4,-1.8 -3.6,0 -7.15,0.6 -10.65,1.8 -3.4,1.2 -6.45,3.15 -9.15,5.85 -2.6,2.6 -4.7,6 -6.3,10.2 -1.6,4.2 -2.4,9.3 -2.4,15.3 0,4.8 0.5,9.3 1.5,13.5 1.1,4.1 2.8,7.65 5.1,10.65 2.4,3 5.5,5.4 9.3,7.2 3.8,1.7 8.4,2.55 13.8,2.55 3.4,0 6.45,-0.2 9.15,-0.6 2.7,-0.4 5.1,-0.85 7.2,-1.35 2.1,-0.6 3.95,-1.25 5.55,-1.95 1.6,-0.7 3.05,-1.35 4.35,-1.95 l 6.45,18.75 c -3.3,2 -7.95,3.8 -13.95,5.4 -6,1.6 -12.95,2.4 -20.85,2.4 z m 65.707,-54.15 c 0,5.1 0.6,9.7 1.8,13.8 1.3,4.1 3.1,7.65 5.4,10.65 2.4,2.9 5.3,5.15 8.7,6.75 3.4,1.6 7.303,2.4 11.703,2.4 4.3,0 8.15,-0.8 11.55,-2.4 3.5,-1.6 6.4,-3.85 8.7,-6.75 2.4,-3 4.2,-6.55 5.4,-10.65 1.3,-4.1 1.95,-8.7 1.95,-13.8 0,-5.1 -0.65,-9.7 -1.95,-13.8 -1.2,-4.2 -3,-7.75 -5.4,-10.65 -2.3,-3 -5.2,-5.3 -8.7,-6.9 -3.4,-1.6 -7.25,-2.4 -11.55,-2.4 -4.4,0 -8.303,0.85 -11.703,2.55 -3.4,1.6 -6.3,3.9 -8.7,6.9 -2.3,2.9 -4.1,6.45 -5.4,10.65 -1.2,4.1 -1.8,8.65 -1.8,13.65 z m 79.353,0 c 0,8.9 -1.35,16.75 -4.05,23.55 -2.6,6.7 -6.2,12.35 -10.8,16.95 -4.6,4.5 -10.1,7.9 -16.5,10.2 -6.3,2.3 -13.1,3.45 -20.4,3.45 -7.103,0 -13.803,-1.15 -20.103,-3.45 -6.3,-2.3 -11.8,-5.7 -16.5,-10.2 -4.7,-4.6 -8.4,-10.25 -11.1,-16.95 -2.7,-6.8 -4.05,-14.65 -4.05,-23.55 0,-8.9 1.4,-16.7 4.2,-23.4 2.8,-6.8 6.55,-12.5 11.25,-17.1 4.8,-4.6 10.3,-8.05 16.5,-10.35 6.3,-2.3 12.9,-3.45 19.803,-3.45 7.1,0 13.8,1.15 20.1,3.45 6.3,2.3 11.8,5.75 16.5,10.35 4.7,4.6 8.4,10.3 11.1,17.1 2.7,6.7 4.05,14.5 4.05,23.4 z m 89.25,52.05 c -6.7,-11.9 -13.95,-23.65 -21.75,-35.25 -7.8,-11.6 -16.1,-22.55 -24.9,-32.85 V 670 h -23.1 V 566.05 h 19.05 c 3.3,3.3 6.95,7.35 10.95,12.15 4,4.8 8.05,9.95 12.15,15.45 4.2,5.4 8.35,11.05 12.45,16.95 4.1,5.8 7.95,11.4 11.55,16.8 v -61.35 h 23.25 V 670 Z m 71.98,-17.85 c 3.3,0 6,-0.25 8.1,-0.75 2.2,-0.6 3.95,-1.35 5.25,-2.25 1.3,-1 2.2,-2.15 2.7,-3.45 0.5,-1.3 0.75,-2.75 0.75,-4.35 0,-3.4 -1.6,-6.2 -4.8,-8.4 -3.2,-2.3 -8.7,-4.75 -16.5,-7.35 -3.4,-1.2 -6.8,-2.55 -10.2,-4.05 -3.4,-1.6 -6.45,-3.55 -9.15,-5.85 -2.7,-2.4 -4.9,-5.25 -6.6,-8.55 -1.7,-3.4 -2.55,-7.5 -2.55,-12.3 0,-4.8 0.9,-9.1 2.7,-12.9 1.8,-3.9 4.35,-7.2 7.65,-9.9 3.3,-2.7 7.3,-4.75 12,-6.15 4.7,-1.5 10,-2.25 15.9,-2.25 7,0 13.05,0.75 18.15,2.25 5.1,1.5 9.3,3.15 12.6,4.95 l -6.75,18.45 c -2.9,-1.5 -6.15,-2.8 -9.75,-3.9 -3.5,-1.2 -7.75,-1.8 -12.75,-1.8 -5.6,0 -9.65,0.8 -12.15,2.4 -2.4,1.5 -3.6,3.85 -3.6,7.05 0,1.9 0.45,3.5 1.35,4.8 0.9,1.3 2.15,2.5 3.75,3.6 1.7,1 3.6,1.95 5.7,2.85 2.2,0.8 4.6,1.65 7.2,2.55 5.4,2 10.1,4 14.1,6 4,1.9 7.3,4.15 9.9,6.75 2.7,2.6 4.7,5.65 6,9.15 1.3,3.5 1.95,7.75 1.95,12.75 0,9.7 -3.4,17.25 -10.2,22.65 -6.8,5.3 -17.05,7.95 -30.75,7.95 -4.6,0 -8.75,-0.3 -12.45,-0.9 -3.7,-0.5 -7,-1.15 -9.9,-1.95 -2.8,-0.8 -5.25,-1.65 -7.35,-2.55 -2,-0.9 -3.7,-1.75 -5.1,-2.55 l 6.6,-18.6 c 3.1,1.7 6.9,3.25 11.4,4.65 4.6,1.3 10.2,1.95 16.8,1.95 z m 133.13,-86.1 V 586 h -31.35 v 84 h -23.4 v -84 h -31.35 v -19.95 z m 45.49,-1.2 c 15.6,0 27.55,2.8 35.85,8.4 8.3,5.5 12.45,14.1 12.45,25.8 0,7.3 -1.7,13.25 -5.1,17.85 -3.3,4.5 -8.1,8.05 -14.4,10.65 2.1,2.6 4.3,5.6 6.6,9 2.3,3.3 4.55,6.8 6.75,10.5 2.3,3.6 4.5,7.4 6.6,11.4 2.1,3.9 4.05,7.75 5.85,11.55 h -26.25 c -1.9,-3.4 -3.85,-6.85 -5.85,-10.35 -1.9,-3.5 -3.9,-6.9 -6,-10.2 -2,-3.3 -4,-6.4 -6,-9.3 -2,-3 -4,-5.7 -6,-8.1 h -11.55 V 670 h -23.4 V 567.55 c 5.1,-1 10.35,-1.7 15.75,-2.1 5.5,-0.4 10.4,-0.6 14.7,-0.6 z m 1.35,19.95 c -1.7,0 -3.25,0.05 -4.65,0.15 -1.3,0.1 -2.55,0.2 -3.75,0.3 v 28.2 h 6.6 c 8.8,0 15.1,-1.1 18.9,-3.3 3.8,-2.2 5.7,-5.95 5.7,-11.25 0,-5.1 -1.95,-8.7 -5.85,-10.8 -3.8,-2.2 -9.45,-3.3 -16.95,-3.3 z m 107.72,87.3 c -7.3,0 -13.6,-1 -18.9,-3 -5.3,-2.1 -9.7,-4.95 -13.2,-8.55 -3.4,-3.7 -5.95,-8.05 -7.65,-13.05 -1.6,-5.1 -2.4,-10.7 -2.4,-16.8 v -64.65 h 23.4 v 62.7 c 0,4.2 0.45,7.8 1.35,10.8 1,2.9 2.3,5.3 3.9,7.2 1.7,1.8 3.7,3.1 6,3.9 2.4,0.8 5,1.2 7.8,1.2 5.7,0 10.3,-1.75 13.8,-5.25 3.6,-3.5 5.4,-9.45 5.4,-17.85 v -62.7 h 23.4 v 64.65 c 0,6.1 -0.85,11.7 -2.55,16.8 -1.7,5.1 -4.3,9.5 -7.8,13.2 -3.5,3.6 -7.95,6.4 -13.35,8.4 -5.4,2 -11.8,3 -19.2,3 z m 112.81,0 c -16.9,0 -29.8,-4.7 -38.7,-14.1 -8.8,-9.4 -13.2,-22.75 -13.2,-40.05 0,-8.6 1.35,-16.25 4.05,-22.95 2.7,-6.8 6.4,-12.5 11.1,-17.1 4.7,-4.7 10.3,-8.25 16.8,-10.65 6.5,-2.4 13.55,-3.6 21.15,-3.6 4.4,0 8.4,0.35 12,1.05 3.6,0.6 6.75,1.35 9.45,2.25 2.7,0.8 4.95,1.65 6.75,2.55 1.8,0.9 3.1,1.6 3.9,2.1 l -6.75,18.9 c -3.2,-1.7 -6.95,-3.15 -11.25,-4.35 -4.2,-1.2 -9,-1.8 -14.4,-1.8 -3.6,0 -7.15,0.6 -10.65,1.8 -3.4,1.2 -6.45,3.15 -9.15,5.85 -2.6,2.6 -4.7,6 -6.3,10.2 -1.6,4.2 -2.4,9.3 -2.4,15.3 0,4.8 0.5,9.3 1.5,13.5 1.1,4.1 2.8,7.65 5.1,10.65 2.4,3 5.5,5.4 9.3,7.2 3.8,1.7 8.4,2.55 13.8,2.55 3.4,0 6.45,-0.2 9.15,-0.6 2.7,-0.4 5.1,-0.85 7.2,-1.35 2.1,-0.6 3.95,-1.25 5.55,-1.95 1.6,-0.7 3.05,-1.35 4.35,-1.95 l 6.45,18.75 c -3.3,2 -7.95,3.8 -13.95,5.4 -6,1.6 -12.95,2.4 -20.85,2.4 z M 1748.38,566.05 V 586 h -31.35 v 84 h -23.4 v -84 h -31.35 v -19.95 z m 15.03,0 h 23.4 V 670 h -23.4 z m 67.12,51.9 c 0,5.1 0.6,9.7 1.8,13.8 1.3,4.1 3.1,7.65 5.4,10.65 2.4,2.9 5.3,5.15 8.7,6.75 3.4,1.6 7.3,2.4 11.7,2.4 4.3,0 8.15,-0.8 11.55,-2.4 3.5,-1.6 6.4,-3.85 8.7,-6.75 2.4,-3 4.2,-6.55 5.4,-10.65 1.3,-4.1 1.95,-8.7 1.95,-13.8 0,-5.1 -0.65,-9.7 -1.95,-13.8 -1.2,-4.2 -3,-7.75 -5.4,-10.65 -2.3,-3 -5.2,-5.3 -8.7,-6.9 -3.4,-1.6 -7.25,-2.4 -11.55,-2.4 -4.4,0 -8.3,0.85 -11.7,2.55 -3.4,1.6 -6.3,3.9 -8.7,6.9 -2.3,2.9 -4.1,6.45 -5.4,10.65 -1.2,4.1 -1.8,8.65 -1.8,13.65 z m 79.35,0 c 0,8.9 -1.35,16.75 -4.05,23.55 -2.6,6.7 -6.2,12.35 -10.8,16.95 -4.6,4.5 -10.1,7.9 -16.5,10.2 -6.3,2.3 -13.1,3.45 -20.4,3.45 -7.1,0 -13.8,-1.15 -20.1,-3.45 -6.3,-2.3 -11.8,-5.7 -16.5,-10.2 -4.7,-4.6 -8.4,-10.25 -11.1,-16.95 -2.7,-6.8 -4.05,-14.65 -4.05,-23.55 0,-8.9 1.4,-16.7 4.2,-23.4 2.8,-6.8 6.55,-12.5 11.25,-17.1 4.8,-4.6 10.3,-8.05 16.5,-10.35 6.3,-2.3 12.9,-3.45 19.8,-3.45 7.1,0 13.8,1.15 20.1,3.45 6.3,2.3 11.8,5.75 16.5,10.35 4.7,4.6 8.4,10.3 11.1,17.1 2.7,6.7 4.05,14.5 4.05,23.4 z m 89.25,52.05 c -6.7,-11.9 -13.95,-23.65 -21.75,-35.25 -7.8,-11.6 -16.1,-22.55 -24.9,-32.85 V 670 h -23.1 V 566.05 h 19.05 c 3.3,3.3 6.95,7.35 10.95,12.15 4,4.8 8.05,9.95 12.15,15.45 4.2,5.4 8.35,11.05 12.45,16.95 4.1,5.8 7.95,11.4 11.55,16.8 v -61.35 h 23.25 V 670 Z m 71.98,-17.85 c 3.3,0 6,-0.25 8.1,-0.75 2.2,-0.6 3.95,-1.35 5.25,-2.25 1.3,-1 2.2,-2.15 2.7,-3.45 0.5,-1.3 0.75,-2.75 0.75,-4.35 0,-3.4 -1.6,-6.2 -4.8,-8.4 -3.2,-2.3 -8.7,-4.75 -16.5,-7.35 -3.4,-1.2 -6.8,-2.55 -10.2,-4.05 -3.4,-1.6 -6.45,-3.55 -9.15,-5.85 -2.7,-2.4 -4.9,-5.25 -6.6,-8.55 -1.7,-3.4 -2.55,-7.5 -2.55,-12.3 0,-4.8 0.9,-9.1 2.7,-12.9 1.8,-3.9 4.35,-7.2 7.65,-9.9 3.3,-2.7 7.3,-4.75 12,-6.15 4.7,-1.5 10,-2.25 15.9,-2.25 7,0 13.05,0.75 18.15,2.25 5.1,1.5 9.3,3.15 12.6,4.95 l -6.75,18.45 c -2.9,-1.5 -6.15,-2.8 -9.75,-3.9 -3.5,-1.2 -7.75,-1.8 -12.75,-1.8 -5.6,0 -9.65,0.8 -12.15,2.4 -2.4,1.5 -3.6,3.85 -3.6,7.05 0,1.9 0.45,3.5 1.35,4.8 0.9,1.3 2.15,2.5 3.75,3.6 1.7,1 3.6,1.95 5.7,2.85 2.2,0.8 4.6,1.65 7.2,2.55 5.4,2 10.1,4 14.1,6 4,1.9 7.3,4.15 9.9,6.75 2.7,2.6 4.7,5.65 6,9.15 1.3,3.5 1.95,7.75 1.95,12.75 0,9.7 -3.4,17.25 -10.2,22.65 -6.8,5.3 -17.05,7.95 -30.75,7.95 -4.6,0 -8.75,-0.3 -12.45,-0.9 -3.7,-0.5 -7,-1.15 -9.9,-1.95 -2.8,-0.8 -5.25,-1.65 -7.35,-2.55 -2,-0.9 -3.7,-1.75 -5.1,-2.55 l 6.6,-18.6 c 3.1,1.7 6.9,3.25 11.4,4.65 4.6,1.3 10.2,1.95 16.8,1.95 z"
           fill="#d45500"
           id="path16" />
        <path
           d="m 872.7,658 -0.365,0.342 0.002,0.002 z m -9.15,-63 0.464,0.187 10e-4,-0.002 z m 11.1,-17.1 0.35,0.357 0.004,-0.003 z m 16.8,-10.65 -0.173,-0.469 v 0 z m 33.15,-2.55 -0.095,0.491 0.013,0.002 z m 9.45,2.25 -0.158,0.474 0.008,0.003 0.008,0.002 z m 10.65,4.65 0.471,0.168 0.135,-0.379 -0.341,-0.213 z m -6.75,18.9 -0.235,0.442 0.511,0.271 0.195,-0.545 z m -11.25,-4.35 -0.137,0.481 0.003,10e-4 z m -25.05,0 -0.162,-0.473 -0.004,0.002 z m -9.15,5.85 -0.354,-0.354 v 0 z m -7.2,39 -0.486,0.116 0.001,0.007 0.002,0.007 z m 5.1,10.65 -0.397,0.304 0.007,0.008 z m 9.3,7.2 -0.214,0.452 0.01,0.004 z m 22.95,1.95 -0.073,-0.495 v 0 z m 7.2,-1.35 0.116,0.486 0.011,-0.002 0.01,-0.003 z m 5.55,-1.95 0.2,0.458 v 0 z m 4.35,-1.95 0.473,-0.163 -0.18,-0.523 -0.503,0.232 z m 6.45,18.75 0.259,0.428 0.345,-0.209 -0.131,-0.382 z m -13.95,5.4 0.129,0.483 z m -20.85,2.4 v -0.5 c -16.807,0 -29.558,-4.672 -38.337,-13.944 L 872.7,658 l -0.363,0.344 c 9.021,9.528 22.07,14.256 39.063,14.256 z m -38.7,-14.1 0.365,-0.342 C 864.378,648.379 860,635.168 860,617.95 h -0.5 -0.5 c 0,17.382 4.422,30.871 13.335,40.392 z m -13.2,-40.05 h 0.5 c 0,-8.548 1.342,-16.133 4.014,-22.763 L 863.55,595 863.086,594.813 C 860.358,601.583 859,609.298 859,617.95 Z m 4.05,-22.95 0.465,0.185 c 2.677,-6.743 6.34,-12.382 10.985,-16.928 l -0.35,-0.357 -0.35,-0.357 c -4.755,4.654 -8.492,10.415 -11.215,17.272 z m 11.1,-17.1 0.354,0.354 c 4.646,-4.647 10.184,-8.159 16.619,-10.535 l -0.173,-0.469 -0.173,-0.469 c -6.565,2.424 -12.227,6.012 -16.981,10.765 z m 16.8,-10.65 0.173,0.469 c 6.44,-2.378 13.43,-3.569 20.977,-3.569 v -0.5 -0.5 c -7.653,0 -14.763,1.209 -21.323,3.631 z m 21.15,-3.6 v 0.5 c 4.374,0 8.342,0.348 11.905,1.041 l 0.095,-0.491 0.095,-0.491 c -3.636,-0.707 -7.669,-1.059 -12.095,-1.059 z m 12,1.05 -0.082,0.493 c 3.581,0.597 6.704,1.342 9.374,2.231 l 0.158,-0.474 0.158,-0.474 c -2.73,-0.911 -5.907,-1.666 -9.526,-2.269 z m 9.45,2.25 -0.142,0.479 c 2.682,0.795 4.903,1.635 6.668,2.518 l 0.224,-0.447 0.224,-0.447 c -1.835,-0.917 -4.114,-1.777 -6.832,-2.582 z m 6.75,2.55 -0.224,0.447 c 1.798,0.899 3.08,1.59 3.859,2.077 l 0.265,-0.424 0.265,-0.424 c -0.821,-0.513 -2.139,-1.222 -3.941,-2.123 z m 3.9,2.1 -0.471,-0.168 -6.75,18.9 0.471,0.168 0.471,0.168 6.75,-18.9 z m -6.75,18.9 0.235,-0.442 c -3.239,-1.72 -7.024,-3.182 -11.351,-4.39 l -0.134,0.482 -0.134,0.482 c 4.273,1.192 7.988,2.63 11.149,4.31 z m -11.25,-4.35 0.137,-0.481 c -4.253,-1.215 -9.101,-1.819 -14.537,-1.819 v 0.5 0.5 c 5.364,0 10.116,0.596 14.263,1.781 z m -14.4,-1.8 v -0.5 c -3.657,0 -7.261,0.61 -10.812,1.827 l 0.162,0.473 0.162,0.473 c 3.449,-1.183 6.945,-1.773 10.488,-1.773 z m -10.65,1.8 -0.166,-0.471 c -3.475,1.226 -6.588,3.218 -9.338,5.967 l 0.354,0.354 0.354,0.354 c 2.65,-2.651 5.637,-4.559 8.962,-5.733 z m -9.15,5.85 -0.354,-0.354 c -2.659,2.66 -4.794,6.124 -6.413,10.376 l 0.467,0.178 0.467,0.178 c 1.581,-4.148 3.646,-7.484 6.187,-10.024 z m -6.3,10.2 -0.467,-0.178 c -1.628,4.272 -2.433,9.436 -2.433,15.478 h 0.5 0.5 c 0,-5.958 0.795,-10.994 2.367,-15.122 z m -2.4,15.3 h -0.5 c 0,4.835 0.504,9.374 1.514,13.616 L 885.3,631 l 0.486,-0.116 c -0.99,-4.158 -1.486,-8.619 -1.486,-13.384 z m 1.5,13.5 -0.483,0.13 c 1.115,4.155 2.842,7.766 5.186,10.824 l 0.397,-0.304 0.397,-0.304 c -2.256,-2.942 -3.929,-6.431 -5.014,-10.476 z m 5.1,10.65 -0.39,0.312 c 2.451,3.065 5.614,5.51 9.476,7.34 l 0.214,-0.452 0.214,-0.452 c -3.738,-1.77 -6.775,-4.125 -9.124,-7.06 z m 9.3,7.2 -0.204,0.456 c 3.88,1.736 8.554,2.594 14.004,2.594 v -0.5 -0.5 c -5.35,0 -9.876,-0.842 -13.596,-2.506 z m 13.8,2.55 v 0.5 c 3.419,0 6.494,-0.201 9.223,-0.605 l -0.073,-0.495 -0.073,-0.495 c -2.671,0.396 -5.696,0.595 -9.077,0.595 z m 9.15,-0.6 0.073,0.495 c 2.711,-0.402 5.126,-0.855 7.243,-1.359 l -0.116,-0.486 -0.116,-0.486 c -2.083,0.496 -4.468,0.943 -7.157,1.341 z m 7.2,-1.35 0.137,0.481 c 2.117,-0.605 3.989,-1.262 5.613,-1.973 l -0.2,-0.458 -0.2,-0.458 c -1.576,0.689 -3.404,1.332 -5.487,1.927 z m 5.55,-1.95 0.2,0.458 c 1.603,-0.701 3.056,-1.352 4.36,-1.954 l -0.21,-0.454 -0.21,-0.454 c -1.296,0.598 -2.743,1.247 -4.34,1.946 z m 4.35,-1.95 -0.473,0.163 6.45,18.75 0.473,-0.163 0.473,-0.163 -6.45,-18.75 z m 6.45,18.75 -0.259,-0.428 c -3.243,1.966 -7.841,3.751 -13.82,5.345 l 0.129,0.483 0.129,0.483 c 6.021,-1.606 10.723,-3.421 14.08,-5.455 z m -13.95,5.4 -0.129,-0.483 c -5.948,1.586 -12.853,2.383 -20.721,2.383 v 0.5 0.5 c 7.932,0 14.927,-0.803 20.979,-2.417 z m 46.657,-37.95 -0.48,0.14 0.003,0.011 z m 5.4,10.65 -0.397,0.304 0.006,0.008 0.006,0.007 z m 8.7,6.75 0.213,-0.452 v 0 z m 23.253,0 -0.21,-0.455 -0.01,0.003 z m 8.7,-6.75 -0.39,-0.312 v 0.001 z m 5.4,-10.65 -0.48,-0.151 v 0.011 z m 0,-27.6 -0.48,0.137 v 0.007 0.007 z m -5.4,-10.65 -0.4,0.304 0.01,0.008 v 0.007 z m -8.7,-6.9 -0.22,0.452 0.01,0.003 z m -23.253,0.15 0.213,0.453 0.011,-0.006 z m -8.7,6.9 -0.39,-0.312 -0.002,0.001 z m -5.4,10.65 -0.478,-0.148 -0.002,0.008 z m 73.503,37.2 -0.47,-0.185 v 0.004 z m -10.8,16.95 0.35,0.357 v -0.003 z m -16.5,10.2 -0.17,-0.471 v 10e-4 z m -57.003,-10.2 -0.35,0.357 0.004,0.004 z m -11.1,-16.95 -0.465,0.185 10e-4,0.002 z m 0.15,-46.95 0.461,0.193 10e-4,-0.003 z m 11.25,-17.1 -0.346,-0.361 -0.004,0.004 z m 16.5,-10.35 -0.171,-0.47 -0.003,10e-4 z m 39.903,0 0.17,-0.47 v 0 z m 16.5,10.35 0.35,-0.357 v 0 z m 11.1,17.1 -0.47,0.185 v 0.002 z m -75.303,23.4 h -0.5 c 0,5.139 0.605,9.787 1.82,13.94 l 0.48,-0.14 0.48,-0.14 c -1.184,-4.047 -1.78,-8.599 -1.78,-13.66 z m 1.8,13.8 -0.477,0.151 c 1.316,4.148 3.14,7.751 5.48,10.803 l 0.397,-0.304 0.397,-0.304 c -2.26,-2.948 -4.035,-6.445 -5.32,-10.497 z m 5.4,10.65 -0.385,0.319 c 2.447,2.956 5.405,5.252 8.872,6.883 l 0.213,-0.452 0.213,-0.452 c -3.333,-1.569 -6.175,-3.773 -8.528,-6.617 z m 8.7,6.75 -0.213,0.452 c 3.477,1.637 7.456,2.448 11.916,2.448 v -0.5 -0.5 c -4.34,0 -8.167,-0.789 -11.49,-2.352 z m 11.703,2.4 v 0.5 c 4.36,0 8.28,-0.812 11.76,-2.448 l -0.21,-0.452 -0.22,-0.452 c -3.32,1.564 -7.1,2.352 -11.33,2.352 z m 11.55,-2.4 0.2,0.455 c 3.57,-1.632 6.54,-3.93 8.89,-6.894 l -0.39,-0.311 -0.39,-0.311 c -2.25,2.836 -5.09,5.038 -8.52,6.606 z m 8.7,-6.75 0.39,0.312 c 2.44,-3.056 4.27,-6.666 5.49,-10.822 l -0.48,-0.14 -0.48,-0.14 c -1.19,4.044 -2.96,7.534 -5.31,10.478 z m 5.4,-10.65 0.47,0.151 c 1.32,-4.157 1.98,-8.809 1.98,-13.951 h -0.5 -0.5 c 0,5.058 -0.65,9.606 -1.93,13.649 z m 1.95,-13.8 h 0.5 c 0,-5.142 -0.66,-9.794 -1.98,-13.951 l -0.47,0.151 -0.48,0.151 c 1.28,4.043 1.93,8.591 1.93,13.649 z m -1.95,-13.8 0.48,-0.137 c -1.22,-4.256 -3.05,-7.871 -5.5,-10.832 l -0.38,0.319 -0.39,0.319 c 2.35,2.839 4.12,6.324 5.31,10.468 z m -5.4,-10.65 0.39,-0.304 c -2.35,-3.066 -5.31,-5.417 -8.89,-7.051 l -0.2,0.455 -0.21,0.455 c 3.43,1.566 6.26,3.815 8.51,6.749 z m -8.7,-6.9 0.21,-0.452 c -3.48,-1.636 -7.4,-2.448 -11.76,-2.448 v 0.5 0.5 c 4.23,0 8.01,0.788 11.33,2.352 z m -11.55,-2.4 v -0.5 c -4.47,0 -8.447,0.863 -11.927,2.603 l 0.224,0.447 0.224,0.447 c 3.32,-1.66 7.139,-2.497 11.479,-2.497 z m -11.703,2.55 -0.213,-0.452 c -3.471,1.633 -6.431,3.981 -8.877,7.04 l 0.39,0.312 0.39,0.312 c 2.354,-2.941 5.194,-5.193 8.523,-6.76 z m -8.7,6.9 -0.392,-0.311 c -2.345,2.957 -4.171,6.565 -5.486,10.813 l 0.478,0.148 0.478,0.148 c 1.285,-4.152 3.059,-7.644 5.314,-10.487 z m -5.4,10.65 -0.48,-0.14 c -1.215,4.152 -1.82,8.75 -1.82,13.79 h 0.5 0.5 c 0,-4.96 0.595,-9.462 1.78,-13.51 z m 77.553,13.65 h -0.5 c 0,8.85 -1.35,16.635 -4.02,23.365 l 0.47,0.185 0.46,0.185 c 2.73,-6.87 4.09,-14.785 4.09,-23.735 z m -4.05,23.55 -0.47,-0.181 c -2.58,6.642 -6.14,12.231 -10.69,16.777 l 0.36,0.354 0.35,0.354 c 4.65,-4.654 8.29,-10.365 10.91,-17.123 z m -10.8,16.95 -0.35,-0.357 c -4.55,4.447 -9.99,7.809 -16.32,10.086 l 0.17,0.471 0.17,0.471 c 6.46,-2.323 12.02,-5.761 16.68,-10.314 z m -16.5,10.2 -0.17,-0.47 c -6.24,2.279 -12.99,3.42 -20.23,3.42 v 0.5 0.5 c 7.35,0 14.21,-1.159 20.57,-3.48 z m -20.4,3.45 v -0.5 c -7.048,0 -13.69,-1.141 -19.931,-3.42 l -0.172,0.47 -0.171,0.47 c 6.358,2.321 13.116,3.48 20.274,3.48 z m -20.103,-3.45 0.172,-0.47 c -6.238,-2.277 -11.678,-5.64 -16.326,-10.091 l -0.346,0.361 -0.346,0.361 c 4.752,4.549 10.312,7.986 16.675,10.309 z m -16.5,-10.2 0.35,-0.357 c -4.646,-4.547 -8.309,-10.138 -10.986,-16.78 l -0.464,0.187 -0.464,0.187 c 2.724,6.758 6.46,12.467 11.214,17.12 z m -11.1,-16.95 0.465,-0.185 c -2.672,-6.73 -4.015,-14.515 -4.015,-23.365 h -0.5 -0.5 c 0,8.95 1.358,16.865 4.085,23.735 z m -4.05,-23.55 h 0.5 c 0,-8.848 1.392,-16.58 4.161,-23.207 l -0.461,-0.193 -0.461,-0.193 c -2.831,6.773 -4.239,14.641 -4.239,23.593 z m 4.2,-23.4 0.462,0.19 c 2.778,-6.744 6.492,-12.385 11.138,-16.933 l -0.35,-0.357 -0.35,-0.357 c -4.754,4.652 -8.54,10.411 -11.362,17.267 z m 11.25,-17.1 0.346,0.361 c 4.751,-4.553 10.192,-7.966 16.328,-10.242 l -0.174,-0.469 -0.174,-0.469 c -6.264,2.324 -11.823,5.811 -16.672,10.458 z m 16.5,-10.35 0.172,0.47 c 6.243,-2.28 12.785,-3.42 19.631,-3.42 v -0.5 -0.5 c -6.96,0 -13.618,1.16 -19.974,3.48 z m 19.803,-3.45 v 0.5 c 7.04,0 13.68,1.141 19.93,3.42 l 0.17,-0.47 0.17,-0.47 c -6.36,-2.321 -13.12,-3.48 -20.27,-3.48 z m 20.1,3.45 -0.17,0.47 c 6.23,2.276 11.67,5.688 16.32,10.237 l 0.35,-0.357 0.35,-0.357 c -4.76,-4.651 -10.32,-8.139 -16.68,-10.463 z m 16.5,10.35 -0.35,0.357 c 4.64,4.546 8.31,10.185 10.98,16.928 l 0.47,-0.185 0.46,-0.185 c -2.72,-6.857 -6.46,-12.618 -11.21,-17.272 z m 11.1,17.1 -0.47,0.187 c 2.67,6.628 4.02,14.363 4.02,23.213 h 0.5 0.5 c 0,-8.95 -1.36,-16.815 -4.09,-23.587 z m 93.3,75.45 -0.43,0.245 0.14,0.255 h 0.29 z m -21.75,-35.25 -0.41,0.279 v 0 z m -24.9,-32.85 0.38,-0.325 -0.88,-1.03 v 1.355 z m 0,68.1 v 0.5 h 0.5 V 670 Z m -23.1,0 h -0.5 v 0.5 h 0.5 z m 0,-103.95 v -0.5 h -0.5 v 0.5 z m 19.05,0 0.36,-0.354 -0.15,-0.146 h -0.21 z m 10.95,12.15 0.39,-0.32 v 0 z m 12.15,15.45 -0.4,0.299 0.01,0.008 z m 12.45,16.95 -0.41,0.285 v 0.004 z m 11.55,16.8 -0.41,0.277 0.91,1.374 V 627.4 Z m 0,-61.35 v -0.5 h -0.5 v 0.5 z m 23.25,0 h 0.5 v -0.5 h -0.5 z m 0,103.95 v 0.5 h 0.5 V 670 Z m -19.65,0 0.44,-0.245 c -6.71,-11.912 -13.96,-23.673 -21.77,-35.284 l -0.42,0.279 -0.41,0.279 c 7.79,11.589 15.03,23.328 21.73,35.216 z m -21.75,-35.25 0.42,-0.279 c -7.81,-11.615 -16.12,-22.581 -24.94,-32.896 l -0.38,0.325 -0.38,0.325 c 8.79,10.285 17.08,21.219 24.87,32.804 z m -24.9,-32.85 h -0.5 V 670 h 0.5 0.5 v -68.1 z m 0,68.1 v -0.5 h -23.1 v 0.5 0.5 h 23.1 z m -23.1,0 h 0.5 V 566.05 h -0.5 -0.5 V 670 Z m 0,-103.95 v 0.5 h 19.05 v -0.5 -0.5 h -19.05 z m 19.05,0 -0.35,0.354 c 3.29,3.286 6.93,7.324 10.92,12.116 l 0.38,-0.32 0.39,-0.32 c -4.01,-4.808 -7.67,-8.87 -10.98,-12.184 z m 10.95,12.15 -0.38,0.32 c 3.99,4.793 8.04,9.935 12.13,15.429 l 0.4,-0.299 0.4,-0.299 c -4.1,-5.506 -8.16,-10.664 -12.16,-15.471 z m 12.15,15.45 -0.39,0.307 c 4.19,5.393 8.34,11.035 12.43,16.928 l 0.41,-0.285 0.41,-0.285 c -4.1,-5.907 -8.26,-11.565 -12.46,-16.972 z m 12.45,16.95 -0.41,0.289 c 4.1,5.796 7.95,11.392 11.55,16.788 l 0.41,-0.277 0.42,-0.277 c -3.6,-5.404 -7.46,-11.008 -11.56,-16.812 z m 11.55,16.8 h 0.5 v -61.35 h -0.5 -0.5 v 61.35 z m 0,-61.35 v 0.5 h 23.25 v -0.5 -0.5 h -23.25 z m 23.25,0 h -0.5 V 670 h 0.5 0.5 V 566.05 Z m 0,103.95 v -0.5 h -19.65 v 0.5 0.5 h 19.65 z m 60.43,-18.6 0.12,0.486 0.01,-10e-4 v -0.003 z m 5.25,-2.25 0.29,0.411 0.01,-0.007 0.01,-0.008 z m 2.7,-3.45 0.47,0.179 v 0 z m -4.05,-12.75 -0.29,0.406 0.01,0.006 z m -16.5,-7.35 -0.16,0.472 v 0.002 z m -10.2,-4.05 -0.21,0.453 0.01,0.004 z m -9.15,-5.85 -0.33,0.374 0.01,0.007 z m -6.6,-8.55 -0.45,0.224 0.01,0.005 z m 0.15,-25.2 0.45,0.214 0.01,-0.004 z m 7.65,-9.9 -0.31,-0.387 v 0 z m 12,-6.15 0.14,0.479 0.01,-0.003 z m 34.05,0 -0.14,0.48 v 0 z m 12.6,4.95 0.47,0.172 0.15,-0.405 -0.38,-0.206 z m -6.75,18.45 -0.23,0.444 0.51,0.261 0.19,-0.533 z m -9.75,-3.9 -0.16,0.473 0.01,0.003 0.01,0.002 z m -24.9,0.6 0.27,0.424 v -0.003 z m -2.25,11.85 0.41,-0.285 v 0 z m 3.75,3.6 -0.28,0.412 0.01,0.01 0.02,0.009 z m 5.7,2.85 -0.2,0.46 0.02,0.005 0.01,0.005 z m 7.2,2.55 0.18,-0.469 -0.01,-0.003 z m 14.1,6 -0.22,0.447 0.01,0.005 z m 9.9,6.75 -0.35,0.354 v 0.006 z m -2.25,44.55 0.31,0.394 v -0.002 z m -43.2,7.05 0.08,-0.494 -0.01,-10e-4 z m -9.9,-1.95 -0.14,0.481 0.01,10e-4 z m -7.35,-2.55 -0.2,0.456 v 0.004 z m -5.1,-2.55 -0.47,-0.167 -0.14,0.394 0.36,0.207 z m 6.6,-18.6 0.24,-0.438 -0.51,-0.283 -0.2,0.554 z m 11.4,4.65 -0.15,0.478 0.02,0.003 z m 16.8,1.95 v 0.5 c 3.32,0 6.07,-0.251 8.22,-0.764 l -0.12,-0.486 -0.11,-0.486 c -2.05,0.487 -4.71,0.736 -7.99,0.736 z m 8.1,-0.75 0.13,0.482 c 2.24,-0.609 4.04,-1.378 5.41,-2.321 l -0.29,-0.411 -0.28,-0.411 c -1.24,0.857 -2.93,1.588 -5.1,2.179 z m 5.25,-2.25 0.31,0.396 c 1.36,-1.046 2.32,-2.267 2.86,-3.667 l -0.47,-0.179 -0.46,-0.179 c -0.47,1.2 -1.3,2.279 -2.54,3.233 z m 2.7,-3.45 0.47,0.179 c 0.52,-1.365 0.78,-2.877 0.78,-4.529 h -0.5 -0.5 c 0,1.548 -0.24,2.936 -0.71,4.171 z m 0.75,-4.35 h 0.5 c 0,-3.59 -1.7,-6.534 -5.01,-8.812 l -0.29,0.412 -0.28,0.412 c 3.09,2.122 4.58,4.778 4.58,7.988 z m -4.8,-8.4 0.29,-0.406 c -3.26,-2.347 -8.82,-4.816 -16.63,-7.418 l -0.16,0.474 -0.16,0.474 c 7.8,2.598 13.23,5.029 16.37,7.282 z m -16.5,-7.35 0.17,-0.471 c -3.39,-1.196 -6.78,-2.541 -10.17,-4.036 l -0.2,0.457 -0.2,0.457 c 3.41,1.505 6.82,2.86 10.24,4.064 z m -10.2,-4.05 0.21,-0.452 c -3.36,-1.583 -6.37,-3.509 -9.03,-5.779 l -0.33,0.381 -0.32,0.381 c 2.73,2.33 5.82,4.304 9.26,5.921 z m -9.15,-5.85 0.33,-0.374 c -2.65,-2.358 -4.81,-5.158 -6.48,-8.405 l -0.45,0.229 -0.44,0.229 c 1.72,3.353 3.96,6.253 6.71,8.695 z m -6.6,-8.55 0.45,-0.224 c -1.66,-3.314 -2.5,-7.334 -2.5,-12.076 h -0.5 -0.5 c 0,4.858 0.86,9.038 2.6,12.524 z m -2.55,-12.3 h 0.5 c 0,-4.736 0.89,-8.962 2.65,-12.686 l -0.45,-0.214 -0.45,-0.214 c -1.84,3.876 -2.75,8.25 -2.75,13.114 z m 2.7,-12.9 0.46,0.21 c 1.76,-3.832 4.27,-7.071 7.51,-9.723 l -0.32,-0.387 -0.31,-0.387 c -3.36,2.748 -5.96,6.109 -7.79,10.077 z m 7.65,-9.9 0.32,0.387 c 3.24,-2.652 7.18,-4.674 11.82,-6.058 l -0.14,-0.479 -0.14,-0.479 c -4.75,1.416 -8.82,3.494 -12.17,6.242 z m 12,-6.15 0.15,0.476 c 4.65,-1.481 9.89,-2.226 15.75,-2.226 v -0.5 -0.5 c -5.94,0 -11.29,0.755 -16.05,2.274 z m 15.9,-2.25 v 0.5 c 6.97,0 12.97,0.747 18.01,2.23 l 0.14,-0.48 0.14,-0.48 c -5.15,-1.517 -11.25,-2.27 -18.29,-2.27 z m 18.15,2.25 -0.14,0.48 c 5.08,1.493 9.24,3.131 12.5,4.909 l 0.24,-0.439 0.24,-0.439 c -3.34,-1.822 -7.58,-3.484 -12.7,-4.991 z m 12.6,4.95 -0.47,-0.172 -6.75,18.45 0.47,0.172 0.47,0.172 6.75,-18.45 z m -6.75,18.45 0.23,-0.444 c -2.93,-1.516 -6.21,-2.827 -9.83,-3.934 l -0.15,0.478 -0.14,0.478 c 3.57,1.093 6.79,2.382 9.66,3.866 z m -9.75,-3.9 0.16,-0.473 c -3.56,-1.223 -7.87,-1.827 -12.91,-1.827 v 0.5 0.5 c 4.96,0 9.16,0.596 12.59,1.773 z m -12.75,-1.8 v -0.5 c -5.62,0 -9.79,0.799 -12.42,2.479 l 0.27,0.421 0.27,0.421 c 2.38,-1.52 6.31,-2.321 11.88,-2.321 z m -12.15,2.4 -0.26,-0.424 c -2.57,1.605 -3.84,4.128 -3.84,7.474 h 0.5 0.5 c 0,-3.054 1.13,-5.231 3.37,-6.626 z m -3.6,7.05 h -0.5 c 0,1.981 0.47,3.685 1.44,5.085 l 0.41,-0.285 0.41,-0.285 c -0.83,-1.2 -1.26,-2.696 -1.26,-4.515 z m 1.35,4.8 -0.41,0.285 c 0.94,1.359 2.24,2.6 3.88,3.727 l 0.28,-0.412 0.29,-0.412 c -1.57,-1.073 -2.77,-2.232 -3.63,-3.473 z m 3.75,3.6 -0.25,0.431 c 1.72,1.012 3.64,1.972 5.75,2.879 l 0.2,-0.46 0.2,-0.46 c -2.08,-0.893 -3.97,-1.833 -5.64,-2.821 z m 5.7,2.85 -0.17,0.47 c 2.2,0.801 4.61,1.652 7.21,2.552 l 0.16,-0.472 0.17,-0.472 c -2.6,-0.9 -5,-1.749 -7.2,-2.548 z m 7.2,2.55 -0.17,0.469 c 5.39,1.995 10.07,3.988 14.05,5.978 l 0.22,-0.447 0.23,-0.447 c -4.02,-2.01 -8.74,-4.017 -14.15,-6.022 z m 14.1,6 -0.21,0.452 c 3.96,1.88 7.21,4.099 9.76,6.652 l 0.35,-0.354 0.36,-0.354 c -2.65,-2.647 -6,-4.928 -10.04,-6.848 z m 9.9,6.75 -0.35,0.36 c 2.65,2.548 4.61,5.535 5.88,8.964 l 0.47,-0.174 0.47,-0.174 c -1.33,-3.571 -3.37,-6.684 -6.12,-9.336 z m 6,9.15 -0.47,0.174 c 1.28,3.429 1.92,7.617 1.92,12.576 h 0.5 0.5 c 0,-5.041 -0.65,-9.353 -1.98,-12.924 z m 1.95,12.75 h -0.5 c 0,9.568 -3.34,16.965 -10.01,22.258 l 0.31,0.392 0.31,0.392 c 6.94,-5.507 10.39,-13.21 10.39,-23.042 z m -10.2,22.65 -0.31,-0.394 c -6.67,5.201 -16.79,7.844 -30.44,7.844 v 0.5 0.5 c 13.75,0 24.13,-2.657 31.06,-8.056 z m -30.75,7.95 v -0.5 c -4.58,0 -8.7,-0.299 -12.37,-0.894 l -0.08,0.494 -0.08,0.494 c 3.73,0.605 7.91,0.906 12.53,0.906 z m -12.45,-0.9 0.07,-0.495 c -3.68,-0.498 -6.96,-1.144 -9.84,-1.937 l -0.13,0.482 -0.13,0.482 c 2.92,0.807 6.25,1.461 9.96,1.963 z m -9.9,-1.95 0.14,-0.481 c -2.79,-0.795 -5.22,-1.639 -7.29,-2.529 l -0.2,0.46 -0.2,0.46 c 2.13,0.91 4.6,1.766 7.41,2.571 z m -7.35,-2.55 0.21,-0.456 c -1.99,-0.896 -3.68,-1.738 -5.06,-2.528 l -0.25,0.434 -0.25,0.434 c 1.42,0.81 3.14,1.668 5.15,2.572 z m -5.1,-2.55 0.47,0.167 6.6,-18.6 -0.47,-0.167 -0.47,-0.167 -6.6,18.6 z m 6.6,-18.6 -0.24,0.438 c 3.14,1.721 6.97,3.283 11.49,4.689 l 0.15,-0.477 0.15,-0.477 c -4.48,-1.394 -8.24,-2.932 -11.31,-4.611 z m 11.4,4.65 -0.13,0.481 c 4.65,1.316 10.3,1.969 16.93,1.969 v -0.5 -0.5 c -6.57,0 -12.12,-0.647 -16.66,-1.931 z m 149.93,-84.15 h 0.5 v -0.5 h -0.5 z m 0,19.95 v 0.5 h 0.5 V 586 Z m -31.35,0 v -0.5 h -0.5 v 0.5 z m 0,84 v 0.5 h 0.5 V 670 Z m -23.4,0 h -0.5 v 0.5 h 0.5 z m 0,-84 h 0.5 v -0.5 h -0.5 z m -31.35,0 h -0.5 v 0.5 h 0.5 z m 0,-19.95 v -0.5 h -0.5 v 0.5 z m 86.1,0 h -0.5 V 586 h 0.5 0.5 v -19.95 z m 0,19.95 v -0.5 h -31.35 v 0.5 0.5 h 31.35 z m -31.35,0 h -0.5 v 84 h 0.5 0.5 v -84 z m 0,84 v -0.5 h -23.4 v 0.5 0.5 h 23.4 z m -23.4,0 h 0.5 v -84 h -0.5 -0.5 v 84 z m 0,-84 v -0.5 h -31.35 v 0.5 0.5 h 31.35 z m -31.35,0 h 0.5 v -19.95 h -0.5 -0.5 V 586 Z m 0,-19.95 v 0.5 h 86.1 v -0.5 -0.5 h -86.1 z m 167.44,7.2 -0.28,0.414 v 0.003 z m 7.35,43.65 -0.41,-0.297 v 0.001 z m -14.4,10.65 -0.2,-0.462 -0.61,0.255 0.42,0.521 z m 6.6,9 -0.42,0.28 0.01,0.006 z m 6.75,10.5 -0.43,0.256 v 0.006 0.007 z m 6.6,11.4 -0.45,0.232 0.01,0.005 z m 5.85,11.55 v 0.5 h 0.79 l -0.34,-0.714 z m -26.25,0 -0.44,0.244 0.14,0.256 h 0.3 z m -5.85,-10.35 -0.44,0.239 v 0.009 z m -6,-10.2 -0.43,0.259 v 0.009 z m -6,-9.3 -0.42,0.277 v 0.007 z m -6,-8.1 0.38,-0.32 -0.15,-0.18 h -0.23 z m -11.55,0 v -0.5 h -0.5 v 0.5 z m 0,37.95 v 0.5 h 0.5 V 670 Z m -23.4,0 h -0.5 v 0.5 h 0.5 z m 0,-102.45 -0.1,-0.491 -0.4,0.08 v 0.411 z m 15.75,-2.1 -0.04,-0.499 v 0 z m 11.4,19.5 -0.04,-0.499 v 0 z m -3.75,0.3 -0.05,-0.498 -0.45,0.038 v 0.46 z m 0,28.2 h -0.5 v 0.5 h 0.5 z m 25.5,-3.3 -0.26,-0.433 v 0 z m -0.15,-22.05 -0.26,0.433 0.01,0.004 0.01,0.003 z m -18.3,-23.25 v 0.5 c 15.55,0 27.38,2.793 35.57,8.314 l 0.28,-0.414 0.28,-0.414 c -8.42,-5.679 -20.49,-8.486 -36.13,-8.486 z m 35.85,8.4 -0.28,0.417 c 8.13,5.39 12.23,13.817 12.23,25.383 h 0.5 0.5 c 0,-11.834 -4.21,-20.607 -12.68,-26.217 z m 12.45,25.8 h -0.5 c 0,7.223 -1.69,13.06 -5.01,17.553 l 0.41,0.297 0.4,0.297 c 3.48,-4.707 5.2,-10.77 5.2,-18.147 z m -5.1,17.85 -0.41,-0.296 c -3.23,4.412 -7.95,7.911 -14.19,10.484 l 0.2,0.462 0.19,0.462 c 6.36,-2.627 11.24,-6.228 14.61,-10.816 z m -14.4,10.65 -0.39,0.314 c 2.09,2.587 4.28,5.575 6.57,8.966 l 0.42,-0.28 0.41,-0.28 c -2.31,-3.409 -4.51,-6.421 -6.63,-9.034 z m 6.6,9 -0.41,0.286 c 2.29,3.289 4.53,6.779 6.73,10.47 l 0.43,-0.256 0.43,-0.256 c -2.21,-3.709 -4.47,-7.219 -6.77,-10.53 z m 6.75,10.5 -0.43,0.269 c 2.3,3.588 4.49,7.375 6.58,11.363 l 0.45,-0.232 0.44,-0.232 c -2.11,-4.012 -4.32,-7.825 -6.62,-11.437 z m 6.6,11.4 -0.44,0.237 c 2.09,3.893 4.04,7.735 5.83,11.527 l 0.46,-0.214 0.45,-0.214 c -1.81,-3.808 -3.76,-7.666 -5.86,-11.573 z m 5.85,11.55 v -0.5 h -26.25 v 0.5 0.5 h 26.25 z m -26.25,0 0.43,-0.244 c -1.9,-3.401 -3.85,-6.853 -5.85,-10.354 l -0.43,0.248 -0.44,0.248 c 2,3.499 3.95,6.947 5.85,10.346 z m -5.85,-10.35 0.43,-0.239 c -1.9,-3.51 -3.91,-6.92 -6.01,-10.229 l -0.42,0.268 -0.43,0.268 c 2.1,3.291 4.09,6.681 5.99,10.171 z m -6,-10.2 0.42,-0.259 c -2,-3.308 -4.01,-6.416 -6.01,-9.325 l -0.41,0.284 -0.42,0.284 c 2,2.891 3.99,5.983 5.99,9.275 z m -6,-9.3 0.41,-0.277 c -2.01,-3.013 -4.02,-5.728 -6.03,-8.143 l -0.38,0.32 -0.39,0.32 c 1.99,2.385 3.98,5.07 5.97,8.057 z m -6,-8.1 v -0.5 h -11.55 v 0.5 0.5 h 11.55 z m -11.55,0 h -0.5 V 670 h 0.5 0.5 v -37.95 z m 0,37.95 v -0.5 h -23.4 v 0.5 0.5 h 23.4 z m -23.4,0 h 0.5 V 567.55 h -0.5 -0.5 V 670 Z m 0,-102.45 0.09,0.491 c 5.08,-0.996 10.31,-1.694 15.69,-2.092 l -0.03,-0.499 -0.04,-0.499 c -5.42,0.402 -10.69,1.104 -15.81,2.108 z m 15.75,-2.1 0.03,0.499 c 5.49,-0.4 10.38,-0.599 14.67,-0.599 v -0.5 -0.5 c -4.32,0 -9.23,0.201 -14.74,0.601 z m 16.05,19.35 v -0.5 c -1.71,0 -3.28,0.05 -4.69,0.151 l 0.04,0.499 0.03,0.499 c 1.39,-0.099 2.92,-0.149 4.62,-0.149 z m -4.65,0.15 -0.04,-0.499 c -1.3,0.101 -2.55,0.201 -3.76,0.301 l 0.05,0.498 0.04,0.498 c 1.2,-0.1 2.44,-0.2 3.74,-0.299 z m -3.75,0.3 h -0.5 v 28.2 h 0.5 0.5 v -28.2 z m 0,28.2 v 0.5 h 6.6 v -0.5 -0.5 h -6.6 z m 6.6,0 v 0.5 c 8.81,0 15.23,-1.097 19.15,-3.367 l -0.25,-0.433 -0.26,-0.433 c -3.67,2.13 -9.86,3.233 -18.64,3.233 z m 18.9,-3.3 0.25,0.433 c 3.98,-2.31 5.95,-6.248 5.95,-11.683 h -0.5 -0.5 c 0,5.165 -1.84,8.727 -5.46,10.817 z m 5.7,-11.25 h 0.5 c 0,-5.25 -2.03,-9.038 -6.12,-11.24 l -0.23,0.44 -0.24,0.44 c 3.71,1.998 5.59,5.41 5.59,10.36 z m -5.85,-10.8 0.25,-0.433 c -3.92,-2.265 -9.67,-3.367 -17.2,-3.367 v 0.5 0.5 c 7.46,0 13.01,1.098 16.69,3.233 z m 71.87,81 -0.18,0.465 0.01,0.003 z m -13.2,-8.55 -0.37,0.338 0.01,0.011 z m -7.65,-13.05 -0.47,0.15 v 0.011 z m -2.4,-81.45 v -0.5 h -0.5 v 0.5 z m 23.4,0 h 0.5 v -0.5 h -0.5 z m 1.35,73.5 -0.48,0.144 0.01,0.009 v 0.01 z m 3.9,7.2 -0.38,0.322 0.01,0.011 0.01,0.01 z m 6,3.9 -0.16,0.472 v 0.002 z m 21.6,-4.05 -0.35,-0.359 v 0.005 z m 5.4,-80.55 v -0.5 h -0.5 v 0.5 z m 23.4,0 h 0.5 v -0.5 h -0.5 z m -2.55,81.45 -0.47,-0.158 v 0 z m -7.8,13.2 0.36,0.349 0.01,-0.005 z m -32.55,11.4 v -0.5 c -7.25,0 -13.49,-0.994 -18.72,-2.968 l -0.18,0.468 -0.17,0.468 c 5.37,2.026 11.73,3.032 19.07,3.032 z m -18.9,-3 0.19,-0.465 c -5.25,-2.077 -9.58,-4.891 -13.03,-8.434 l -0.36,0.349 -0.36,0.349 c 3.56,3.657 8.02,6.543 13.38,8.666 z m -13.2,-8.55 0.37,-0.338 c -3.35,-3.647 -5.87,-7.935 -7.54,-12.873 l -0.48,0.161 -0.47,0.161 c 1.72,5.062 4.3,9.474 7.75,13.227 z m -7.65,-13.05 0.48,-0.15 c -1.58,-5.045 -2.38,-10.594 -2.38,-16.65 h -0.5 -0.5 c 0,6.144 0.81,11.795 2.43,16.95 z m -2.4,-16.8 h 0.5 v -64.65 h -0.5 -0.5 v 64.65 z m 0,-64.65 v 0.5 h 23.4 v -0.5 -0.5 h -23.4 z m 23.4,0 h -0.5 v 62.7 h 0.5 0.5 v -62.7 z m 0,62.7 h -0.5 c 0,4.233 0.46,7.884 1.37,10.944 l 0.48,-0.144 0.48,-0.144 c -0.88,-2.94 -1.33,-6.489 -1.33,-10.656 z m 1.35,10.8 -0.47,0.163 c 1.02,2.945 2.34,5.402 3.99,7.359 l 0.38,-0.322 0.38,-0.322 c -1.55,-1.843 -2.82,-4.186 -3.8,-7.041 z m 3.9,7.2 -0.36,0.343 c 1.75,1.858 3.82,3.202 6.2,4.029 l 0.16,-0.472 0.17,-0.472 c -2.23,-0.773 -4.16,-2.029 -5.8,-3.771 z m 6,3.9 -0.16,0.474 c 2.46,0.819 5.11,1.226 7.96,1.226 v -0.5 -0.5 c -2.75,0 -5.3,-0.393 -7.64,-1.174 z m 7.8,1.2 v 0.5 c 5.81,0 10.55,-1.788 14.16,-5.396 l -0.36,-0.354 -0.35,-0.354 c -3.39,3.392 -7.86,5.104 -13.45,5.104 z m 13.8,-5.25 0.35,0.358 c 3.75,-3.64 5.55,-9.759 5.55,-18.208 h -0.5 -0.5 c 0,8.351 -1.79,14.132 -5.25,17.492 z m 5.4,-17.85 h 0.5 v -62.7 h -0.5 -0.5 v 62.7 z m 0,-62.7 v 0.5 h 23.4 v -0.5 -0.5 h -23.4 z m 23.4,0 h -0.5 v 64.65 h 0.5 0.5 v -64.65 z m 0,64.65 h -0.5 c 0,6.053 -0.84,11.599 -2.52,16.642 l 0.47,0.158 0.48,0.158 c 1.72,-5.157 2.57,-10.811 2.57,-16.958 z m -2.55,16.8 -0.47,-0.158 c -1.68,5.035 -4.24,9.37 -7.69,13.014 l 0.36,0.344 0.37,0.344 c 3.55,-3.756 6.19,-8.221 7.91,-13.386 z m -7.8,13.2 -0.36,-0.349 c -3.44,3.54 -7.82,6.302 -13.16,8.28 l 0.17,0.469 0.18,0.469 c 5.46,-2.022 9.97,-4.86 13.53,-8.52 z m -13.35,8.4 -0.17,-0.469 c -5.33,1.975 -11.67,2.969 -19.03,2.969 v 0.5 0.5 c 7.45,0 13.91,-1.006 19.38,-3.031 z m 54.91,-11.1 -0.37,0.342 v 0.002 z m -9.15,-63 0.46,0.187 v -0.002 z m 11.1,-17.1 0.35,0.357 v -0.003 z m 16.8,-10.65 -0.18,-0.469 v 0 z m 33.15,-2.55 -0.1,0.491 0.01,0.002 z m 9.45,2.25 -0.16,0.474 0.01,0.003 0.01,0.002 z m 10.65,4.65 0.47,0.168 0.13,-0.379 -0.34,-0.213 z m -6.75,18.9 -0.24,0.442 0.51,0.271 0.2,-0.545 z m -11.25,-4.35 -0.14,0.481 v 10e-4 z m -25.05,0 -0.17,-0.473 v 0.002 z m -9.15,5.85 -0.36,-0.354 v 0 z m -7.2,39 -0.49,0.116 v 0.007 0.007 z m 5.1,10.65 -0.4,0.304 0.01,0.008 z m 9.3,7.2 -0.22,0.452 0.01,0.004 z m 22.95,1.95 -0.08,-0.495 v 0 z m 7.2,-1.35 0.11,0.486 0.01,-0.002 0.01,-0.003 z m 5.55,-1.95 0.2,0.458 v 0 z m 4.35,-1.95 0.47,-0.163 -0.18,-0.523 -0.5,0.232 z m 6.45,18.75 0.26,0.428 0.34,-0.209 -0.13,-0.382 z m -13.95,5.4 0.13,0.483 z m -20.85,2.4 v -0.5 c -16.81,0 -29.56,-4.672 -38.34,-13.944 l -0.36,0.344 -0.37,0.344 c 9.02,9.528 22.07,14.256 39.07,14.256 z m -38.7,-14.1 0.36,-0.342 c -8.68,-9.279 -13.06,-22.49 -13.06,-39.708 h -0.5 -0.5 c 0,17.382 4.42,30.871 13.33,40.392 z m -13.2,-40.05 h 0.5 c 0,-8.548 1.34,-16.133 4.01,-22.763 l -0.46,-0.187 -0.47,-0.187 c -2.72,6.77 -4.08,14.485 -4.08,23.137 z m 4.05,-22.95 0.46,0.185 c 2.68,-6.743 6.34,-12.382 10.99,-16.928 l -0.35,-0.357 -0.35,-0.357 c -4.76,4.654 -8.49,10.415 -11.22,17.272 z m 11.1,-17.1 0.35,0.354 c 4.65,-4.647 10.19,-8.159 16.62,-10.535 l -0.17,-0.469 -0.18,-0.469 c -6.56,2.424 -12.22,6.012 -16.98,10.765 z m 16.8,-10.65 0.17,0.469 c 6.44,-2.378 13.43,-3.569 20.98,-3.569 v -0.5 -0.5 c -7.66,0 -14.77,1.209 -21.33,3.631 z m 21.15,-3.6 v 0.5 c 4.37,0 8.34,0.348 11.9,1.041 l 0.1,-0.491 0.09,-0.491 c -3.63,-0.707 -7.67,-1.059 -12.09,-1.059 z m 12,1.05 -0.09,0.493 c 3.59,0.597 6.71,1.342 9.38,2.231 l 0.16,-0.474 0.16,-0.474 c -2.74,-0.911 -5.91,-1.666 -9.53,-2.269 z m 9.45,2.25 -0.14,0.479 c 2.68,0.795 4.9,1.635 6.66,2.518 l 0.23,-0.447 0.22,-0.447 c -1.83,-0.917 -4.11,-1.777 -6.83,-2.582 z m 6.75,2.55 -0.23,0.447 c 1.8,0.899 3.08,1.59 3.86,2.077 l 0.27,-0.424 0.26,-0.424 c -0.82,-0.513 -2.14,-1.222 -3.94,-2.123 z m 3.9,2.1 -0.47,-0.168 -6.75,18.9 0.47,0.168 0.47,0.168 6.75,-18.9 z m -6.75,18.9 0.23,-0.442 c -3.24,-1.72 -7.02,-3.182 -11.35,-4.39 l -0.13,0.482 -0.14,0.482 c 4.28,1.192 7.99,2.63 11.15,4.31 z m -11.25,-4.35 0.13,-0.481 c -4.25,-1.215 -9.1,-1.819 -14.53,-1.819 v 0.5 0.5 c 5.36,0 10.11,0.596 14.26,1.781 z m -14.4,-1.8 v -0.5 c -3.66,0 -7.26,0.61 -10.82,1.827 l 0.17,0.473 0.16,0.473 c 3.45,-1.183 6.94,-1.773 10.49,-1.773 z m -10.65,1.8 -0.17,-0.471 c -3.47,1.226 -6.59,3.218 -9.34,5.967 l 0.36,0.354 0.35,0.354 c 2.65,-2.651 5.64,-4.559 8.96,-5.733 z m -9.15,5.85 -0.36,-0.354 c -2.66,2.66 -4.79,6.124 -6.41,10.376 l 0.47,0.178 0.46,0.178 c 1.58,-4.148 3.65,-7.484 6.19,-10.024 z m -6.3,10.2 -0.47,-0.178 c -1.63,4.272 -2.43,9.436 -2.43,15.478 h 0.5 0.5 c 0,-5.958 0.79,-10.994 2.36,-15.122 z m -2.4,15.3 h -0.5 c 0,4.835 0.5,9.374 1.51,13.616 l 0.49,-0.116 0.48,-0.116 c -0.99,-4.158 -1.48,-8.619 -1.48,-13.384 z m 1.5,13.5 -0.49,0.13 c 1.12,4.155 2.85,7.766 5.19,10.824 l 0.4,-0.304 0.39,-0.304 c -2.25,-2.942 -3.92,-6.431 -5.01,-10.476 z m 5.1,10.65 -0.39,0.312 c 2.45,3.065 5.61,5.51 9.47,7.34 l 0.22,-0.452 0.21,-0.452 c -3.74,-1.77 -6.77,-4.125 -9.12,-7.06 z m 9.3,7.2 -0.21,0.456 c 3.88,1.736 8.56,2.594 14.01,2.594 v -0.5 -0.5 c -5.35,0 -9.88,-0.842 -13.6,-2.506 z m 13.8,2.55 v 0.5 c 3.42,0 6.49,-0.201 9.22,-0.605 l -0.07,-0.495 -0.08,-0.495 c -2.67,0.396 -5.69,0.595 -9.07,0.595 z m 9.15,-0.6 0.07,0.495 c 2.71,-0.402 5.13,-0.855 7.24,-1.359 l -0.11,-0.486 -0.12,-0.486 c -2.08,0.496 -4.47,0.943 -7.16,1.341 z m 7.2,-1.35 0.13,0.481 c 2.12,-0.605 3.99,-1.262 5.62,-1.973 l -0.2,-0.458 -0.2,-0.458 c -1.58,0.689 -3.41,1.332 -5.49,1.927 z m 5.55,-1.95 0.2,0.458 c 1.6,-0.701 3.05,-1.352 4.36,-1.954 l -0.21,-0.454 -0.21,-0.454 c -1.3,0.598 -2.75,1.247 -4.34,1.946 z m 4.35,-1.95 -0.48,0.163 6.45,18.75 0.48,-0.163 0.47,-0.163 -6.45,-18.75 z m 6.45,18.75 -0.26,-0.428 c -3.24,1.966 -7.84,3.751 -13.82,5.345 l 0.13,0.483 0.13,0.483 c 6.02,-1.606 10.72,-3.421 14.08,-5.455 z m -13.95,5.4 -0.13,-0.483 c -5.95,1.586 -12.86,2.383 -20.72,2.383 v 0.5 0.5 c 7.93,0 14.92,-0.803 20.98,-2.417 z m 109.34,-103.65 h 0.5 v -0.5 h -0.5 z m 0,19.95 v 0.5 h 0.5 V 586 Z m -31.35,0 v -0.5 h -0.5 v 0.5 z m 0,84 v 0.5 h 0.5 V 670 Z m -23.4,0 h -0.5 v 0.5 h 0.5 z m 0,-84 h 0.5 v -0.5 h -0.5 z m -31.35,0 h -0.5 v 0.5 h 0.5 z m 0,-19.95 v -0.5 h -0.5 v 0.5 z m 86.1,0 h -0.5 V 586 h 0.5 0.5 v -19.95 z m 0,19.95 v -0.5 h -31.35 v 0.5 0.5 h 31.35 z m -31.35,0 h -0.5 v 84 h 0.5 0.5 v -84 z m 0,84 v -0.5 h -23.4 v 0.5 0.5 h 23.4 z m -23.4,0 h 0.5 v -84 h -0.5 -0.5 v 84 z m 0,-84 v -0.5 h -31.35 v 0.5 0.5 h 31.35 z m -31.35,0 h 0.5 v -19.95 h -0.5 -0.5 V 586 Z m 0,-19.95 v 0.5 h 86.1 v -0.5 -0.5 h -86.1 z m 101.13,0 v -0.5 h -0.5 v 0.5 z m 23.4,0 h 0.5 v -0.5 h -0.5 z m 0,103.95 v 0.5 h 0.5 V 670 Z m -23.4,0 h -0.5 v 0.5 h 0.5 z m 0,-103.95 v 0.5 h 23.4 v -0.5 -0.5 h -23.4 z m 23.4,0 h -0.5 V 670 h 0.5 0.5 V 566.05 Z m 0,103.95 v -0.5 h -23.4 v 0.5 0.5 h 23.4 z m -23.4,0 h 0.5 V 566.05 h -0.5 -0.5 V 670 Z m 68.92,-38.25 -0.48,0.14 v 0.011 z m 5.4,10.65 -0.4,0.304 v 0.008 l 0.01,0.007 z m 8.7,6.75 0.21,-0.452 v 0 z m 23.25,0 -0.21,-0.455 -0.01,0.003 z m 8.7,-6.75 -0.4,-0.312 v 0.001 z m 5.4,-10.65 -0.48,-0.151 v 0.011 z m 0,-27.6 -0.49,0.137 0.01,0.007 v 0.007 z m -5.4,-10.65 -0.4,0.304 v 0.008 l 0.01,0.007 z m -8.7,-6.9 -0.22,0.452 0.01,0.003 z m -23.25,0.15 0.21,0.453 0.01,-0.006 z m -8.7,6.9 -0.4,-0.312 v 0.001 z m -5.4,10.65 -0.48,-0.148 v 0.008 z m 73.5,37.2 -0.47,-0.185 v 0.004 z m -10.8,16.95 0.34,0.357 0.01,-0.003 z m -16.5,10.2 -0.17,-0.471 -0.01,10e-4 z m -57,-10.2 -0.35,0.357 v 0.004 z m -11.1,-16.95 -0.47,0.185 v 0.002 z m 0.15,-46.95 0.46,0.193 v -0.003 z m 11.25,-17.1 -0.35,-0.361 v 0.004 z m 16.5,-10.35 -0.18,-0.47 v 10e-4 z m 39.9,0 0.17,-0.47 v 0 z m 16.5,10.35 0.34,-0.357 v 0 z m 11.1,17.1 -0.47,0.185 v 0.002 z m -75.3,23.4 h -0.5 c 0,5.139 0.6,9.787 1.82,13.94 l 0.48,-0.14 0.47,-0.14 c -1.18,-4.047 -1.78,-8.599 -1.78,-13.66 z m 1.8,13.8 -0.48,0.151 c 1.31,4.148 3.14,7.751 5.48,10.803 l 0.4,-0.304 0.39,-0.304 c -2.26,-2.948 -4.03,-6.445 -5.32,-10.497 z m 5.4,10.65 -0.39,0.319 c 2.45,2.956 5.41,5.252 8.87,6.883 l 0.22,-0.452 0.21,-0.452 c -3.34,-1.569 -6.18,-3.773 -8.53,-6.617 z m 8.7,6.75 -0.22,0.452 c 3.48,1.637 7.45,2.448 11.92,2.448 v -0.5 -0.5 c -4.34,0 -8.17,-0.789 -11.49,-2.352 z m 11.7,2.4 v 0.5 c 4.36,0 8.28,-0.812 11.76,-2.448 l -0.21,-0.452 -0.22,-0.452 c -3.32,1.564 -7.1,2.352 -11.33,2.352 z m 11.55,-2.4 0.2,0.455 c 3.57,-1.632 6.54,-3.93 8.89,-6.894 l -0.39,-0.311 -0.4,-0.311 c -2.25,2.836 -5.08,5.038 -8.51,6.606 z m 8.7,-6.75 0.39,0.312 c 2.44,-3.056 4.27,-6.666 5.48,-10.822 l -0.47,-0.14 -0.48,-0.14 c -1.19,4.044 -2.96,7.534 -5.32,10.478 z m 5.4,-10.65 0.47,0.151 c 1.32,-4.157 1.98,-8.809 1.98,-13.951 h -0.5 -0.5 c 0,5.058 -0.65,9.606 -1.93,13.649 z m 1.95,-13.8 h 0.5 c 0,-5.142 -0.66,-9.794 -1.98,-13.951 l -0.47,0.151 -0.48,0.151 c 1.28,4.043 1.93,8.591 1.93,13.649 z m -1.95,-13.8 0.48,-0.137 c -1.22,-4.256 -3.05,-7.871 -5.5,-10.832 l -0.38,0.319 -0.39,0.319 c 2.35,2.839 4.12,6.324 5.3,10.468 z m -5.4,-10.65 0.39,-0.304 c -2.35,-3.066 -5.31,-5.417 -8.89,-7.051 l -0.2,0.455 -0.21,0.455 c 3.42,1.566 6.26,3.815 8.51,6.749 z m -8.7,-6.9 0.21,-0.452 c -3.48,-1.636 -7.4,-2.448 -11.76,-2.448 v 0.5 0.5 c 4.23,0 8.01,0.788 11.33,2.352 z m -11.55,-2.4 v -0.5 c -4.47,0 -8.45,0.863 -11.93,2.603 l 0.23,0.447 0.22,0.447 c 3.32,-1.66 7.14,-2.497 11.48,-2.497 z m -11.7,2.55 -0.22,-0.452 c -3.47,1.633 -6.43,3.981 -8.88,7.04 l 0.4,0.312 0.39,0.312 c 2.35,-2.941 5.19,-5.193 8.52,-6.76 z m -8.7,6.9 -0.4,-0.311 c -2.34,2.957 -4.17,6.565 -5.48,10.813 l 0.48,0.148 0.47,0.148 c 1.29,-4.152 3.06,-7.644 5.32,-10.487 z m -5.4,10.65 -0.48,-0.14 c -1.22,4.152 -1.82,8.75 -1.82,13.79 h 0.5 0.49 c 0,-4.96 0.6,-9.462 1.78,-13.51 z m 77.55,13.65 h -0.5 c 0,8.85 -1.35,16.635 -4.02,23.365 l 0.47,0.185 0.46,0.185 c 2.73,-6.87 4.08,-14.785 4.08,-23.735 z m -4.05,23.55 -0.47,-0.181 c -2.58,6.642 -6.14,12.231 -10.69,16.777 l 0.36,0.354 0.35,0.354 c 4.65,-4.654 8.29,-10.365 10.91,-17.123 z m -10.8,16.95 -0.35,-0.357 c -4.55,4.447 -9.99,7.809 -16.32,10.086 l 0.17,0.471 0.16,0.471 c 6.47,-2.323 12.03,-5.761 16.68,-10.314 z m -16.5,10.2 -0.18,-0.47 c -6.24,2.279 -12.98,3.42 -20.22,3.42 v 0.5 0.5 c 7.35,0 14.21,-1.159 20.57,-3.48 z m -20.4,3.45 v -0.5 c -7.05,0 -13.69,-1.141 -19.93,-3.42 l -0.17,0.47 -0.18,0.47 c 6.36,2.321 13.12,3.48 20.28,3.48 z m -20.1,-3.45 0.17,-0.47 c -6.24,-2.277 -11.68,-5.64 -16.33,-10.091 l -0.34,0.361 -0.35,0.361 c 4.75,4.549 10.31,7.986 16.67,10.309 z m -16.5,-10.2 0.34,-0.357 c -4.64,-4.547 -8.3,-10.138 -10.98,-16.78 l -0.46,0.187 -0.47,0.187 c 2.72,6.758 6.46,12.467 11.22,17.12 z m -11.1,-16.95 0.46,-0.185 c -2.67,-6.73 -4.02,-14.515 -4.02,-23.365 h -0.49 -0.5 c 0,8.95 1.35,16.865 4.08,23.735 z m -4.05,-23.55 h 0.49 c 0,-8.848 1.4,-16.58 4.17,-23.207 l -0.46,-0.193 -0.47,-0.193 c -2.83,6.773 -4.23,14.641 -4.23,23.593 z m 4.2,-23.4 0.46,0.19 c 2.77,-6.744 6.49,-12.385 11.13,-16.933 l -0.34,-0.357 -0.35,-0.357 c -4.76,4.652 -8.54,10.411 -11.37,17.267 z m 11.25,-17.1 0.34,0.361 c 4.75,-4.553 10.19,-7.966 16.33,-10.242 l -0.17,-0.469 -0.18,-0.469 c -6.26,2.324 -11.82,5.811 -16.67,10.458 z m 16.5,-10.35 0.17,0.47 c 6.24,-2.28 12.78,-3.42 19.63,-3.42 v -0.5 -0.5 c -6.96,0 -13.62,1.16 -19.98,3.48 z m 19.8,-3.45 v 0.5 c 7.04,0 13.68,1.141 19.92,3.42 l 0.18,-0.47 0.17,-0.47 c -6.36,-2.321 -13.12,-3.48 -20.27,-3.48 z m 20.1,3.45 -0.18,0.47 c 6.24,2.276 11.68,5.688 16.33,10.237 l 0.35,-0.357 0.34,-0.357 c -4.75,-4.651 -10.31,-8.139 -16.67,-10.463 z m 16.5,10.35 -0.35,0.357 c 4.64,4.546 8.3,10.185 10.98,16.928 l 0.47,-0.185 0.46,-0.185 c -2.72,-6.857 -6.46,-12.618 -11.22,-17.272 z m 11.1,17.1 -0.47,0.187 c 2.67,6.628 4.02,14.363 4.02,23.213 h 0.5 0.49 c 0,-8.95 -1.35,-16.815 -4.08,-23.587 z m 93.3,75.45 -0.43,0.245 0.14,0.255 h 0.29 z m -21.75,-35.25 -0.41,0.279 v 0 z m -24.9,-32.85 0.38,-0.325 -0.88,-1.03 v 1.355 z m 0,68.1 v 0.5 h 0.5 V 670 Z m -23.1,0 h -0.5 v 0.5 h 0.5 z m 0,-103.95 v -0.5 h -0.5 v 0.5 z m 19.05,0 0.35,-0.354 -0.14,-0.146 h -0.21 z m 10.95,12.15 0.38,-0.32 v 0 z m 12.15,15.45 -0.4,0.299 0.01,0.008 z m 12.45,16.95 -0.41,0.285 v 0.004 z m 11.55,16.8 -0.42,0.277 0.92,1.374 V 627.4 Z m 0,-61.35 v -0.5 h -0.5 v 0.5 z m 23.25,0 h 0.5 v -0.5 h -0.5 z m 0,103.95 v 0.5 h 0.5 V 670 Z m -19.65,0 0.44,-0.245 c -6.71,-11.912 -13.97,-23.673 -21.77,-35.284 l -0.42,0.279 -0.41,0.279 c 7.79,11.589 15.03,23.328 21.73,35.216 z m -21.75,-35.25 0.42,-0.279 c -7.81,-11.615 -16.13,-22.581 -24.94,-32.896 l -0.38,0.325 -0.38,0.325 c 8.79,10.285 17.08,21.219 24.87,32.804 z m -24.9,-32.85 h -0.5 V 670 h 0.5 0.5 v -68.1 z m 0,68.1 v -0.5 h -23.1 v 0.5 0.5 h 23.1 z m -23.1,0 h 0.5 V 566.05 h -0.5 -0.5 V 670 Z m 0,-103.95 v 0.5 h 19.05 v -0.5 -0.5 h -19.05 z m 19.05,0 -0.35,0.354 c 3.28,3.286 6.92,7.324 10.92,12.116 l 0.38,-0.32 0.38,-0.32 c -4,-4.808 -7.66,-8.87 -10.98,-12.184 z m 10.95,12.15 -0.38,0.32 c 3.99,4.793 8.03,9.935 12.13,15.429 l 0.4,-0.299 0.4,-0.299 c -4.1,-5.506 -8.16,-10.664 -12.17,-15.471 z m 12.15,15.45 -0.39,0.307 c 4.19,5.393 8.34,11.035 12.43,16.928 l 0.41,-0.285 0.41,-0.285 c -4.1,-5.907 -8.26,-11.565 -12.46,-16.972 z m 12.45,16.95 -0.41,0.289 c 4.1,5.796 7.95,11.392 11.54,16.788 l 0.42,-0.277 0.42,-0.277 c -3.61,-5.404 -7.46,-11.008 -11.56,-16.812 z m 11.55,16.8 h 0.5 v -61.35 h -0.5 -0.5 v 61.35 z m 0,-61.35 v 0.5 h 23.25 v -0.5 -0.5 h -23.25 z m 23.25,0 h -0.5 V 670 h 0.5 0.5 V 566.05 Z m 0,103.95 v -0.5 h -19.65 v 0.5 0.5 h 19.65 z m 60.43,-18.6 0.12,0.486 v -10e-4 l 0.01,-0.003 z m 5.25,-2.25 0.28,0.411 0.01,-0.007 0.01,-0.008 z m 2.7,-3.45 0.47,0.179 v 0 z m -4.05,-12.75 -0.29,0.406 0.01,0.006 z m -16.5,-7.35 -0.17,0.472 0.01,0.002 z m -10.2,-4.05 -0.21,0.453 0.01,0.004 z m -9.15,-5.85 -0.33,0.374 0.01,0.007 z m -6.6,-8.55 -0.45,0.224 0.01,0.005 z m 0.15,-25.2 0.45,0.214 v -0.004 z m 7.65,-9.9 -0.32,-0.387 v 0 z m 12,-6.15 0.14,0.479 0.01,-0.003 z m 34.05,0 -0.14,0.48 v 0 z m 12.6,4.95 0.47,0.172 0.15,-0.405 -0.38,-0.206 z m -6.75,18.45 -0.23,0.444 0.5,0.261 0.2,-0.533 z m -9.75,-3.9 -0.16,0.473 0.01,0.003 v 0.002 z m -24.9,0.6 0.26,0.424 0.01,-0.003 z m -2.25,11.85 0.41,-0.285 v 0 z m 3.75,3.6 -0.28,0.412 0.01,0.01 0.02,0.009 z m 5.7,2.85 -0.2,0.46 0.02,0.005 0.01,0.005 z m 7.2,2.55 0.17,-0.469 -0.01,-0.003 z m 14.1,6 -0.22,0.447 0.01,0.005 z m 9.9,6.75 -0.35,0.354 v 0.006 z m -2.25,44.55 0.31,0.394 v -0.002 z m -43.2,7.05 0.08,-0.494 -0.01,-10e-4 z m -9.9,-1.95 -0.14,0.481 0.01,10e-4 z m -7.35,-2.55 -0.21,0.456 0.01,0.004 z m -5.1,-2.55 -0.47,-0.167 -0.14,0.394 0.36,0.207 z m 6.6,-18.6 0.24,-0.438 -0.51,-0.283 -0.2,0.554 z m 11.4,4.65 -0.15,0.478 0.01,0.003 z m 16.8,1.95 v 0.5 c 3.32,0 6.06,-0.251 8.22,-0.764 l -0.12,-0.486 -0.12,-0.486 c -2.04,0.487 -4.7,0.736 -7.98,0.736 z m 8.1,-0.75 0.13,0.482 c 2.23,-0.609 4.04,-1.378 5.4,-2.321 l -0.28,-0.411 -0.28,-0.411 c -1.24,0.857 -2.93,1.588 -5.1,2.179 z m 5.25,-2.25 0.3,0.396 c 1.36,-1.046 2.33,-2.267 2.87,-3.667 l -0.47,-0.179 -0.47,-0.179 c -0.46,1.2 -1.29,2.279 -2.54,3.233 z m 2.7,-3.45 0.47,0.179 c 0.52,-1.365 0.78,-2.877 0.78,-4.529 h -0.5 -0.5 c 0,1.548 -0.24,2.936 -0.72,4.171 z m 0.75,-4.35 h 0.5 c 0,-3.59 -1.7,-6.534 -5.02,-8.812 l -0.28,0.412 -0.28,0.412 c 3.08,2.122 4.58,4.778 4.58,7.988 z m -4.8,-8.4 0.29,-0.406 c -3.26,-2.347 -8.82,-4.816 -16.63,-7.418 l -0.16,0.474 -0.16,0.474 c 7.79,2.598 13.23,5.029 16.37,7.282 z m -16.5,-7.35 0.17,-0.471 c -3.39,-1.196 -6.78,-2.541 -10.17,-4.036 l -0.2,0.457 -0.2,0.457 c 3.41,1.505 6.82,2.86 10.23,4.064 z m -10.2,-4.05 0.21,-0.452 c -3.36,-1.583 -6.37,-3.509 -9.04,-5.779 l -0.32,0.381 -0.32,0.381 c 2.73,2.33 5.82,4.304 9.26,5.921 z m -9.15,-5.85 0.33,-0.374 c -2.65,-2.358 -4.81,-5.158 -6.49,-8.405 l -0.44,0.229 -0.44,0.229 c 1.72,3.353 3.96,6.253 6.71,8.695 z m -6.6,-8.55 0.45,-0.224 c -1.66,-3.314 -2.5,-7.334 -2.5,-12.076 h -0.5 -0.5 c 0,4.858 0.86,9.038 2.6,12.524 z m -2.55,-12.3 h 0.5 c 0,-4.736 0.89,-8.962 2.65,-12.686 l -0.45,-0.214 -0.45,-0.214 c -1.84,3.876 -2.75,8.25 -2.75,13.114 z m 2.7,-12.9 0.45,0.21 c 1.77,-3.832 4.28,-7.071 7.52,-9.723 l -0.32,-0.387 -0.32,-0.387 c -3.36,2.748 -5.95,6.109 -7.78,10.077 z m 7.65,-9.9 0.32,0.387 c 3.24,-2.652 7.18,-4.674 11.82,-6.058 l -0.14,-0.479 -0.14,-0.479 c -4.76,1.416 -8.82,3.494 -12.18,6.242 z m 12,-6.15 0.15,0.476 c 4.64,-1.481 9.89,-2.226 15.75,-2.226 v -0.5 -0.5 c -5.94,0 -11.29,0.755 -16.05,2.274 z m 15.9,-2.25 v 0.5 c 6.97,0 12.97,0.747 18.01,2.23 l 0.14,-0.48 0.14,-0.48 c -5.16,-1.517 -11.26,-2.27 -18.29,-2.27 z m 18.15,2.25 -0.14,0.48 c 5.08,1.493 9.24,3.131 12.5,4.909 l 0.24,-0.439 0.24,-0.439 c -3.34,-1.822 -7.58,-3.484 -12.7,-4.991 z m 12.6,4.95 -0.47,-0.172 -6.75,18.45 0.47,0.172 0.47,0.172 6.75,-18.45 z m -6.75,18.45 0.23,-0.444 c -2.93,-1.516 -6.21,-2.827 -9.83,-3.934 l -0.15,0.478 -0.15,0.478 c 3.58,1.093 6.8,2.382 9.67,3.866 z m -9.75,-3.9 0.16,-0.473 c -3.56,-1.223 -7.87,-1.827 -12.91,-1.827 v 0.5 0.5 c 4.96,0 9.15,0.596 12.59,1.773 z m -12.75,-1.8 v -0.5 c -5.62,0 -9.79,0.799 -12.42,2.479 l 0.27,0.421 0.27,0.421 c 2.37,-1.52 6.3,-2.321 11.88,-2.321 z m -12.15,2.4 -0.27,-0.424 c -2.56,1.605 -3.83,4.128 -3.83,7.474 h 0.5 0.5 c 0,-3.054 1.13,-5.231 3.36,-6.626 z m -3.6,7.05 h -0.5 c 0,1.981 0.47,3.685 1.44,5.085 l 0.41,-0.285 0.41,-0.285 c -0.83,-1.2 -1.26,-2.696 -1.26,-4.515 z m 1.35,4.8 -0.41,0.285 c 0.94,1.359 2.24,2.6 3.88,3.727 l 0.28,-0.412 0.28,-0.412 c -1.56,-1.073 -2.76,-2.232 -3.62,-3.473 z m 3.75,3.6 -0.25,0.431 c 1.72,1.012 3.64,1.972 5.75,2.879 l 0.2,-0.46 0.2,-0.46 c -2.09,-0.893 -3.97,-1.833 -5.65,-2.821 z m 5.7,2.85 -0.17,0.47 c 2.2,0.801 4.6,1.652 7.21,2.552 l 0.16,-0.472 0.16,-0.472 c -2.59,-0.9 -4.99,-1.749 -7.19,-2.548 z m 7.2,2.55 -0.17,0.469 c 5.38,1.995 10.07,3.988 14.05,5.978 l 0.22,-0.447 0.22,-0.447 c -4.02,-2.01 -8.73,-4.017 -14.15,-6.022 z m 14.1,6 -0.21,0.452 c 3.95,1.88 7.2,4.099 9.76,6.652 l 0.35,-0.354 0.35,-0.354 c -2.64,-2.647 -5.99,-4.928 -10.04,-6.848 z m 9.9,6.75 -0.35,0.36 c 2.65,2.548 4.61,5.535 5.88,8.964 l 0.47,-0.174 0.47,-0.174 c -1.33,-3.571 -3.37,-6.684 -6.12,-9.336 z m 6,9.15 -0.47,0.174 c 1.27,3.429 1.92,7.617 1.92,12.576 h 0.5 0.5 c 0,-5.041 -0.66,-9.353 -1.98,-12.924 z m 1.95,12.75 h -0.5 c 0,9.568 -3.35,16.965 -10.01,22.258 l 0.31,0.392 0.31,0.392 c 6.94,-5.507 10.39,-13.21 10.39,-23.042 z m -10.2,22.65 -0.31,-0.394 c -6.67,5.201 -16.79,7.844 -30.44,7.844 v 0.5 0.5 c 13.75,0 24.13,-2.657 31.06,-8.056 z m -30.75,7.95 v -0.5 c -4.58,0 -8.7,-0.299 -12.37,-0.894 l -0.08,0.494 -0.08,0.494 c 3.73,0.605 7.91,0.906 12.53,0.906 z m -12.45,-0.9 0.07,-0.495 c -3.69,-0.498 -6.96,-1.144 -9.84,-1.937 l -0.13,0.482 -0.13,0.482 c 2.92,0.807 6.25,1.461 9.96,1.963 z m -9.9,-1.95 0.14,-0.481 c -2.79,-0.795 -5.22,-1.639 -7.29,-2.529 l -0.2,0.46 -0.2,0.46 c 2.13,0.91 4.6,1.766 7.41,2.571 z m -7.35,-2.55 0.2,-0.456 c -1.99,-0.896 -3.67,-1.738 -5.05,-2.528 l -0.25,0.434 -0.25,0.434 c 1.42,0.81 3.13,1.668 5.14,2.572 z m -5.1,-2.55 0.47,0.167 6.6,-18.6 -0.47,-0.167 -0.47,-0.167 -6.6,18.6 z m 6.6,-18.6 -0.24,0.438 c 3.14,1.721 6.97,3.283 11.49,4.689 l 0.15,-0.477 0.15,-0.477 c -4.48,-1.394 -8.25,-2.932 -11.31,-4.611 z m 11.4,4.65 -0.14,0.481 c 4.66,1.316 10.31,1.969 16.94,1.969 v -0.5 -0.5 c -6.57,0 -12.12,-0.647 -16.66,-1.931 z"
           fill="#042939"
           id="path18" />
        <path
           d="M 696.877,313.34955 707.572,85.392255 h 85.885 l 4.928,314.030225"
           fill="#d45500"
           id="path20"
           style="stroke-width:0.999998" />
        <path
           d="M 706.707,35.080249 V 69.117708 H 793.66 V 35.0779 Z"
           fill="#d45500"
           id="path22"
           style="stroke-width:0.999998" />
        <path
           d="m 356.0684,409.9 c 0,260.41 0,263.292 0,263.292 H 811.605 V 413.95 L 591.69,194.035 Z"
           stroke="#042939"
           stroke-width="4.9134"
           id="path24" />
        <g
           mask="url(#mask0_228_1584)"
           id="g37"
           transform="translate(340)">
          <path
             d="m 5.85938,428.663 c 0,276.132 0,279.187 0,279.187 H 488.898 V 432.957 L 255.706,199.766 Z"
             stroke="#042939"
             stroke-width="11.7164"
             id="path35" />
        </g>
        <text
           xml:space="preserve"
           style="font-style:normal;font-variant:normal;font-weight:normal;font-stretch:normal;font-size:80.0001px;line-height:1.25;font-family:serif;-inkscape-font-specification:'serif, Normal';font-variant-ligatures:normal;font-variant-position:normal;font-variant-caps:normal;font-variant-numeric:normal;font-variant-alternates:normal;font-variant-east-asian:normal;font-feature-settings:normal;font-variation-settings:normal;text-indent:0;text-align:start;text-decoration-line:none;text-decoration-style:solid;text-decoration-color:#000000;letter-spacing:normal;word-spacing:normal;text-transform:none;writing-mode:lr-tb;direction:ltr;text-orientation:mixed;dominant-baseline:auto;baseline-shift:baseline;text-anchor:start;white-space:normal;shape-padding:0;shape-margin:0;inline-size:0;opacity:1;vector-effect:none;fill:#042939;fill-opacity:1;stroke-width:0.127245;stroke-linecap:butt;stroke-linejoin:miter;stroke-miterlimit:4;stroke-dasharray:none;stroke-dashoffset:0;stroke-opacity:1;-inkscape-stroke:none;stop-color:#000000;stop-opacity:1"
           x="810.92126"
           y="-374.10489"
           id="text1358"
           transform="matrix(7.8588659,0,0,7.8588659,-5503.9818,3453.0986)"><tspan
             sodipodi:role="line"
             id="tspan1356"
             x="810.92126"
             y="-374.10489"
             style="fill:#042939;fill-opacity:1;stroke-width:0.127245">ABC</tspan></text>
      </g>
    </g>
    <mask
       id="mask0_228_1584"
       maskUnits="userSpaceOnUse"
       x="-204"
       y="119"
       width="805"
       height="292">
      <path
         d="M 600.31,119.598 H -203.586 V 410.769 H 600.31 Z"
         fill="#ffffff"
         id="path32" />
    </mask>
    <mask
       id="mask1_228_1584"
       maskUnits="userSpaceOnUse"
       x="260"
       y="178"
       width="665"
       height="301">
      <path
         d="M 924.451,178.673 H 260.818 v 299.891 h 663.633 z"
         fill="#ffffff"
         id="path39" />
    </mask>
  </g>
  <defs
     id="defs51">
    <clipPath
       id="clip0_228_1584">
      <rect
         width="2114"
         height="690"
         fill="#ffffff"
         id="rect48"
         x="0"
         y="0" />
    </clipPath>
  </defs>
</svg>
